HIERARCHY
ROOT joint_Root
{
	OFFSET 0.0 0.0 0.0
	CHANNELS 6 Xposition Yposition Zposition Zrotation Xrotation Yrotation 
	JOINT Hips
	{
		OFFSET -0.726466 93.3139 -2.00062
		CHANNELS 6 Xposition Yposition Zposition Zrotation Xrotation Yrotation 
		JOINT Spine
		{
			OFFSET 15.7357 0.0 0.0
			CHANNELS 6 Xposition Yposition Zposition Zrotation Xrotation Yrotation 
			JOINT Chest
			{
				OFFSET 8.98455 -0.406207 0.0
				CHANNELS 6 Xposition Yposition Zposition Zrotation Xrotation Yrotation 
				JOINT Neck
				{
					OFFSET 16.3773 0.0 0.0
					CHANNELS 6 Xposition Yposition Zposition Zrotation Xrotation Yrotation 
					JOINT Head
					{
						OFFSET 6.45672 0.0 0.0
						CHANNELS 6 Xposition Yposition Zposition Zrotation Xrotation Yrotation 
						End Site
						{
							OFFSET 0.0 0.0 0.0
						}
					}
				}
				JOINT Shoulder_L
				{
					OFFSET 12.9942 -0.242716 4.98039
					CHANNELS 6 Xposition Yposition Zposition Zrotation Xrotation Yrotation 
					JOINT UpperArm_L
					{
						OFFSET 5.34809 0.0 0.0
						CHANNELS 6 Xposition Yposition Zposition Zrotation Xrotation Yrotation 
						JOINT LowerArm_L
						{
							OFFSET 24.3286 1.87007e-05 0.0
							CHANNELS 6 Xposition Yposition Zposition Zrotation Xrotation Yrotation 
							JOINT Hand_L
							{
								OFFSET 22.2916 0.0 0.0
								CHANNELS 6 Xposition Yposition Zposition Zrotation Xrotation Yrotation 
								End Site
								{
									OFFSET 0.0 0.0 0.0
								}
							}
						}
					}
				}
				JOINT Shoulder_R
				{
					OFFSET 12.9945 -0.242716 -4.98039
					CHANNELS 6 Xposition Yposition Zposition Zrotation Xrotation Yrotation 
					JOINT UpperArm_R
					{
						OFFSET -5.34813 0.0 0.0
						CHANNELS 6 Xposition Yposition Zposition Zrotation Xrotation Yrotation 
						JOINT LowerArm_R
						{
							OFFSET -24.3289 0.000322201 0.0
							CHANNELS 6 Xposition Yposition Zposition Zrotation Xrotation Yrotation 
							JOINT Hand_R
							{
								OFFSET -22.2915 -0.000108084 0.0
								CHANNELS 6 Xposition Yposition Zposition Zrotation Xrotation Yrotation 
								End Site
								{
									OFFSET 0.0 0.0 0.0
								}
							}
						}
					}
				}
			}
		}
		JOINT UpperLeg_L
		{
			OFFSET -2.19248 -6.46944 0.0
			CHANNELS 6 Xposition Yposition Zposition Zrotation Xrotation Yrotation 
			JOINT LowerLeg_L
			{
				OFFSET 39.0811 0.0 -1.23785e-05
				CHANNELS 6 Xposition Yposition Zposition Zrotation Xrotation Yrotation 
				JOINT Foot_L
				{
					OFFSET 40.9854 0.0 -1.26872e-05
					CHANNELS 6 Xposition Yposition Zposition Zrotation Xrotation Yrotation 
					JOINT Toes_L
					{
						OFFSET 11.7543 0.0 0.0
						CHANNELS 6 Xposition Yposition Zposition Zrotation Xrotation Yrotation 
						End Site
						{
							OFFSET 0.0 0.0 0.0
						}
					}
				}
			}
		}
		JOINT UpperLeg_R
		{
			OFFSET -2.19251 6.46944 0.0
			CHANNELS 6 Xposition Yposition Zposition Zrotation Xrotation Yrotation 
			JOINT LowerLeg_R
			{
				OFFSET -39.0811 -0.00228153 -0.0401928
				CHANNELS 6 Xposition Yposition Zposition Zrotation Xrotation Yrotation 
				JOINT Foot_R
				{
					OFFSET -40.9854 0.0 0.0
					CHANNELS 6 Xposition Yposition Zposition Zrotation Xrotation Yrotation 
					JOINT Toes_R
					{
						OFFSET -11.7543 0.0 0.0
						CHANNELS 6 Xposition Yposition Zposition Zrotation Xrotation Yrotation 
						End Site
						{
							OFFSET 0.0 0.0 0.0
						}
					}
				}
			}
		}
	}
}
MOTION
Frames:	7
Frame Time:	0.0333333
0.000000 0.000000 0.000000 0.000000 0.000000 -0.000000 1.309510 92.077400 -1.835750 87.468600 -6.001520 4.144320 15.735700 0.000005 -0.000001 95.992900 84.720400 -97.833800 8.984550 -0.406207 -0.000000 2.757690 1.181830 -3.706490 16.377300 -0.000001 -0.000001 3.147260 -4.368550 3.118610 6.456720 -0.000001 -0.000000 -2.144950 -4.110310 -8.924330 12.994200 -0.242716 4.980390 -88.133500 -5.801480 -72.131100 5.348090 -0.000007 -0.000001 14.522500 75.919900 -64.334700 24.328600 0.000019 0.000005 12.172500 0.643667 -87.018800 22.291600 -0.000001 0.000005 46.659900 5.468640 -36.921500 12.994500 -0.242716 -4.980390 92.650100 -5.709300 -65.048400 -5.348130 -0.000001 -0.000004 -54.549700 -49.254500 -105.042000 -24.328900 0.000322 -0.000009 5.226520 4.904770 -46.937900 -22.291500 -0.000108 -0.000004 32.695300 5.338830 -1.044530 -2.192480 -6.469440 -0.000000 -170.203000 -16.726100 -1.322260 39.081100 -0.000007 -0.000012 -0.183573 0.431891 23.027900 40.985400 -0.000006 -0.000013 -4.748450 0.491183 -65.751100 11.754300 -0.000000 0.000003 -0.000043 -0.000499 -16.597000 -2.192510 6.469440 -0.000001 173.662000 17.528000 178.946000 -39.081100 -0.002282 -0.040193 0.037950 -0.097591 19.536000 -40.985400 0.000008 0.000006 -1.174500 4.930310 -62.042700 -11.754300 -0.000006 -0.000006 -0.006470 -0.075043 -19.627600
0.000000 0.000000 0.000000 0.000000 0.000000 -0.000000 1.243490 92.085300 -1.870280 87.381200 -5.967120 4.056100 15.735700 0.000005 -0.000001 96.474900 84.733800 -98.295100 8.984550 -0.406207 -0.000000 2.722490 1.266700 -3.666860 16.377300 -0.000001 -0.000001 3.198840 -4.467720 3.222560 6.456720 -0.000001 -0.000000 -2.134280 -4.129600 -8.974280 12.994200 -0.242716 4.980390 -88.154500 -5.735210 -72.128900 5.348090 -0.000007 -0.000001 14.498600 75.894200 -64.250200 24.328600 0.000019 0.000005 12.266400 0.644445 -87.038700 22.291600 -0.000001 0.000005 46.644300 5.470900 -36.837200 12.994500 -0.242716 -4.980390 92.698100 -5.757610 -64.838000 -5.348130 -0.000001 -0.000004 -53.135000 -49.888600 -107.562000 -24.328900 0.000322 -0.000009 6.546580 5.480220 -50.237800 -22.291500 -0.000108 -0.000004 33.099900 5.362780 -1.763250 -2.192480 -6.469440 -0.000000 -170.094000 -16.691900 -1.427700 39.081100 -0.000007 -0.000012 -0.183640 0.432228 23.019400 40.985400 -0.000006 -0.000013 -4.793470 0.509694 -65.711200 11.754300 -0.000000 0.000003 -0.000038 -0.000442 -16.594800 -2.192510 6.469440 -0.000001 173.830000 17.551700 178.848000 -39.081100 -0.002282 -0.040193 0.037769 -0.097136 19.525600 -40.985400 0.000008 0.000006 -1.097120 4.906720 -61.994700 -11.754300 -0.000006 -0.000006 -0.006262 -0.073201 -19.552500
0.000000 0.000000 0.000000 0.000000 0.000000 -0.000000 1.190430 92.086000 -1.889590 87.365900 -5.951920 4.073920 15.735700 0.000005 -0.000001 96.864600 84.719900 -98.688200 8.984550 -0.406207 -0.000000 2.743000 1.340920 -3.675690 16.377300 -0.000001 -0.000001 3.258050 -4.578210 3.337150 6.456720 -0.000001 -0.000000 -2.118170 -4.208070 -9.024210 12.994200 -0.242716 4.980390 -88.181500 -5.659930 -72.155200 5.348090 -0.000007 -0.000001 14.242100 75.835900 -63.915100 24.328600 0.000019 0.000005 12.388200 0.640689 -87.085700 22.291600 -0.000001 0.000005 46.667700 5.473040 -36.756700 12.994500 -0.242716 -4.980390 92.718600 -5.771880 -64.724800 -5.348130 -0.000001 -0.000004 -51.617600 -50.491800 -109.825000 -24.328900 0.000322 -0.000009 6.836390 5.150260 -53.180200 -22.291500 -0.000108 -0.000004 33.489300 5.387860 -2.547270 -2.192480 -6.469440 -0.000000 -170.028000 -16.733300 -1.416940 39.081100 -0.000007 -0.000012 -0.185301 0.436332 23.010100 40.985400 -0.000006 -0.000013 -4.819320 0.556079 -65.676200 11.754300 -0.000000 0.000003 -0.000037 -0.000437 -16.594600 -2.192510 6.469440 -0.000001 173.876000 17.630900 178.852000 -39.081100 -0.002282 -0.040193 0.038212 -0.098268 19.547300 -40.985400 0.000008 0.000006 -1.059830 4.928150 -62.018700 -11.754300 -0.000006 -0.000006 -0.006415 -0.074560 -19.607900
0.000000 0.000000 0.000000 0.000000 0.000000 -0.000000 1.156470 92.089300 -1.916980 87.311100 -5.986800 4.010100 15.735700 0.000005 -0.000001 97.453300 84.746000 -99.255100 8.984550 -0.406207 -0.000000 2.679070 1.441810 -3.633770 16.377300 -0.000001 -0.000001 3.299090 -4.691910 3.447020 6.456720 -0.000001 -0.000000 -1.976420 -4.285920 -9.125820 12.994200 -0.242716 4.980390 -88.215900 -5.561830 -72.183200 5.348090 -0.000007 -0.000001 14.106300 75.765300 -63.693000 24.328600 0.000019 0.000005 12.148800 0.627708 -87.086700 22.291600 -0.000001 0.000005 46.338200 5.462110 -37.161700 12.994500 -0.242716 -4.980390 92.763700 -5.829120 -64.577600 -5.348130 -0.000001 -0.000004 -50.400800 -50.743100 -111.990000 -24.328900 0.000322 -0.000009 7.211400 4.923920 -55.853300 -22.291500 -0.000108 -0.000004 33.172400 5.401640 -2.991080 -2.192480 -6.469440 -0.000000 -169.976000 -16.691600 -1.504320 39.081100 -0.000007 -0.000012 -0.185733 0.437008 23.026300 40.985400 -0.000006 -0.000013 -4.854930 0.495873 -65.663000 11.754300 -0.000000 0.000003 -0.000033 -0.000391 -16.592800 -2.192510 6.469440 -0.000001 173.975000 17.604100 178.788000 -39.081100 -0.002282 -0.040193 0.036997 -0.095046 19.509200 -40.985400 0.000008 0.000006 -1.102000 4.956570 -61.968700 -11.754300 -0.000006 -0.000006 -0.006200 -0.072645 -19.529800
0.000000 0.000000 0.000000 0.000000 0.000000 -0.000000 1.133470 92.088400 -1.925480 87.308100 -6.022880 4.093740 15.735700 0.000005 -0.000001 97.844200 84.721400 -99.658400 8.984550 -0.406207 -0.000000 2.719940 1.519400 -3.660980 16.377300 -0.000001 -0.000001 3.324060 -4.828080 3.619020 6.456720 -0.000001 -0.000000 -1.868100 -4.373560 -9.164340 12.994200 -0.242716 4.980390 -88.235200 -5.515610 -72.226100 5.348090 -0.000007 -0.000001 14.219000 75.676800 -63.740900 24.328600 0.000019 0.000005 12.131700 0.611942 -87.155700 22.291600 -0.000001 0.000005 46.366800 5.464720 -37.066800 12.994500 -0.242716 -4.980390 92.827700 -5.930740 -64.450900 -5.348130 -0.000001 -0.000004 -49.946500 -50.435900 -114.068000 -24.328900 0.000322 -0.000009 7.763940 4.834540 -58.282400 -22.291500 -0.000108 -0.000004 32.901400 5.410960 -3.297440 -2.192480 -6.469440 -0.000000 -169.915000 -16.751900 -1.401100 39.081100 -0.000007 -0.000012 -0.185769 0.437323 23.015400 40.985400 -0.000006 -0.000013 -4.862710 0.554334 -65.650600 11.754300 -0.000000 0.000003 -0.000039 -0.000453 -16.595200 -2.192510 6.469440 -0.000001 173.978000 17.558800 178.844000 -39.081100 -0.002282 -0.040193 0.038025 -0.097676 19.559200 -40.985400 0.000008 0.000006 -1.014910 4.963060 -62.001400 -11.754300 -0.000006 -0.000006 -0.006376 -0.074213 -19.593700
0.000000 0.000000 0.000000 0.000000 0.000000 -0.000000 1.119340 92.087300 -1.948900 87.272900 -6.030600 4.132150 15.735700 0.000005 -0.000001 98.220400 84.717900 -100.047000 8.984550 -0.406207 -0.000000 2.718560 1.589550 -3.687800 16.377300 -0.000001 -0.000001 3.310460 -4.967430 3.762810 6.456720 -0.000001 -0.000000 -1.664280 -4.590970 -9.062260 12.994200 -0.242716 4.980390 -88.241100 -5.529380 -72.323400 5.348090 -0.000007 -0.000001 14.671700 75.666800 -64.170500 24.328600 0.000019 0.000005 12.366500 0.605557 -87.240300 22.291600 -0.000001 0.000005 46.496800 5.472970 -36.759400 12.994500 -0.242716 -4.980390 92.862500 -5.989830 -64.397700 -5.348130 -0.000001 -0.000004 -50.157800 -49.644400 -115.924000 -24.328900 0.000322 -0.000009 7.997490 4.638760 -60.078200 -22.291500 -0.000108 -0.000004 32.835600 5.426020 -3.802980 -2.192480 -6.469440 -0.000000 -169.848000 -16.797200 -1.383030 39.081100 -0.000007 -0.000012 -0.188631 0.443295 23.051000 40.985400 -0.000006 -0.000013 -4.865560 0.586729 -65.650500 11.754300 -0.000000 0.000003 -0.000038 -0.000447 -16.595000 -2.192510 6.469440 -0.000001 174.008000 17.587900 178.857000 -39.081100 -0.002282 -0.040193 0.036872 -0.094312 19.581900 -40.985400 0.000008 0.000006 -1.036880 5.007760 -61.968200 -11.754300 -0.000006 -0.000006 -0.006425 -0.074651 -19.611600
0.000000 0.000000 0.000000 0.000000 0.000000 -0.000000 1.125110 92.075500 -1.971400 87.305700 -6.042300 4.219810 15.735700 0.000005 -0.000001 98.501800 84.675300 -100.366000 8.984550 -0.406207 -0.000000 2.796960 1.653730 -3.764380 16.377300 -0.000001 -0.000001 3.233640 -5.093000 3.904640 6.456720 -0.000001 -0.000000 -1.583010 -4.777710 -9.016400 12.994200 -0.242716 4.980390 -88.251700 -5.509550 -72.363800 5.348090 -0.000007 -0.000001 14.946500 75.534500 -64.461700 24.328600 0.000019 0.000005 12.385400 0.606746 -87.239200 22.291600 -0.000001 0.000005 46.469100 5.473870 -36.725400 12.994500 -0.242716 -4.980390 92.825400 -5.924970 -64.447500 -5.348130 -0.000001 -0.000004 -50.650200 -48.842700 -117.304000 -24.328900 0.000322 -0.000009 8.147030 4.559520 -60.961000 -22.291500 -0.000108 -0.000004 33.052800 5.437710 -4.205870 -2.192480 -6.469440 -0.000000 -169.875000 -16.745900 -1.358610 39.081100 -0.000007 -0.000012 -0.186733 0.437140 23.131000 40.985400 -0.000006 -0.000013 -4.861760 0.551124 -65.676100 11.754300 -0.000000 0.000003 -0.000035 -0.000414 -16.593700 -2.192510 6.469440 -0.000001 173.949000 17.583400 178.884000 -39.081100 -0.002282 -0.040193 0.037852 -0.096584 19.673000 -40.985400 0.000008 0.000006 -1.042530 5.005680 -62.029300 -11.754300 -0.000006 -0.000006 -0.006479 -0.075130 -19.631200
